<svg width="20" height="19" viewBox="0 0 20 19" fill="none" xmlns="http://www.w3.org/2000/svg">
<path d="M10 6.37579C8.27969 6.37579 6.87578 7.7797 6.87578 9.50001C6.87578 11.2203 8.27969 12.6242 10 12.6242C11.7203 12.6242 13.1242 11.2203 13.1242 9.50001C13.1242 7.7797 11.7203 6.37579 10 6.37579ZM19.3703 9.50001C19.3703 8.20626 19.382 6.92423 19.3094 5.63283C19.2367 4.13283 18.8945 2.80158 17.7977 1.7047C16.6984 0.605482 15.3695 0.265639 13.8695 0.192982C12.5758 0.120326 11.2937 0.132045 10.0023 0.132045C8.70859 0.132045 7.42656 0.120326 6.13516 0.192982C4.63516 0.265639 3.30391 0.607826 2.20703 1.7047C1.10781 2.80392 0.767969 4.13283 0.695313 5.63283C0.622657 6.92658 0.634376 8.20861 0.634376 9.50001C0.634376 10.7914 0.622657 12.0758 0.695313 13.3672C0.767969 14.8672 1.11016 16.1985 2.20703 17.2953C3.30625 18.3945 4.63516 18.7344 6.13516 18.807C7.42891 18.8797 8.71094 18.868 10.0023 18.868C11.2961 18.868 12.5781 18.8797 13.8695 18.807C15.3695 18.7344 16.7008 18.3922 17.7977 17.2953C18.8969 16.1961 19.2367 14.8672 19.3094 13.3672C19.3844 12.0758 19.3703 10.7938 19.3703 9.50001ZM10 14.307C7.33984 14.307 5.19297 12.1602 5.19297 9.50001C5.19297 6.83986 7.33984 4.69298 10 4.69298C12.6602 4.69298 14.807 6.83986 14.807 9.50001C14.807 12.1602 12.6602 14.307 10 14.307ZM15.0039 5.61876C14.3828 5.61876 13.8813 5.1172 13.8813 4.49611C13.8813 3.87501 14.3828 3.37345 15.0039 3.37345C15.625 3.37345 16.1266 3.87501 16.1266 4.49611C16.1267 4.64359 16.0978 4.78966 16.0415 4.92595C15.9851 5.06224 15.9024 5.18607 15.7982 5.29036C15.6939 5.39464 15.57 5.47733 15.4337 5.53368C15.2975 5.59004 15.1514 5.61895 15.0039 5.61876Z" fill="#70737C"/>
</svg>
